<svg width="45" height="45" viewBox="0 0 45 45" fill="none" xmlns="http://www.w3.org/2000/svg">
<g clip-path="url(#clip0_9_77)">
<path d="M22.5 45C34.9264 45 45 34.9264 45 22.5C45 10.0736 34.9264 0 22.5 0C10.0736 0 0 10.0736 0 22.5C0 34.9264 10.0736 45 22.5 45Z" fill="url(#paint0_linear_9_77)"/>
<path d="M8.37957 23.6007C11.0098 22.1519 13.9459 20.9427 16.6892 19.7273C21.4088 17.7366 26.1471 15.7804 30.9332 13.9592C31.8643 13.6489 33.5376 13.3456 33.7016 14.7256C33.6116 16.6789 33.2423 18.6209 32.9888 20.5628C32.3454 24.8333 31.6016 29.0892 30.8766 33.3456C30.6266 34.7633 28.8506 35.4974 27.7142 34.5901C24.9831 32.7451 22.2309 30.9184 19.5347 29.0307C18.6516 28.1333 19.4706 26.8444 20.2592 26.2036C22.5086 23.9867 24.8942 22.1033 27.0261 19.7719C27.6011 18.3833 25.902 19.5537 25.3416 19.9124C22.2621 22.0345 19.2579 24.2862 16.0112 26.1512C14.3528 27.0642 12.4198 26.284 10.7621 25.7744C9.27582 25.1592 7.09782 24.5391 8.37938 23.6009L8.37957 23.6007Z" fill="white"/>
</g>
<defs>
<linearGradient id="paint0_linear_9_77" x1="30.0019" y1="7.5015" x2="18.7519" y2="33.75" gradientUnits="userSpaceOnUse">
<stop stop-color="#8C8C8C"/>
<stop offset="1"/>
</linearGradient>
<clipPath id="clip0_9_77">
<rect width="45" height="45" fill="white"/>
</clipPath>
</defs>
</svg>
