<svg width="43" height="43" viewBox="0 0 43 43" fill="none" xmlns="http://www.w3.org/2000/svg">
<path d="M32.5975 7.3525C32.0932 7.3525 31.6001 7.50206 31.1808 7.78225C30.7614 8.06245 30.4346 8.46071 30.2416 8.92666C30.0486 9.39261 29.9981 9.90533 30.0965 10.4C30.1949 10.8946 30.4378 11.349 30.7944 11.7056C31.151 12.0622 31.6054 12.3051 32.1 12.4035C32.5947 12.5019 33.1074 12.4514 33.5733 12.2584C34.0393 12.0654 34.4375 11.7385 34.7177 11.3192C34.9979 10.8999 35.1475 10.4068 35.1475 9.9025C35.1475 9.2262 34.8788 8.5776 34.4006 8.09938C33.9224 7.62116 33.2738 7.3525 32.5975 7.3525ZM42.3725 12.495C42.3312 10.7319 42.001 8.98748 41.395 7.33125C40.8547 5.91416 40.0137 4.63097 38.93 3.57C37.8777 2.48078 36.5916 1.64512 35.1687 1.12625C33.5169 0.501842 31.7706 0.164071 30.005 0.1275C27.7525 -1.19209e-07 27.03 0 21.25 0C15.47 0 14.7475 -1.19209e-07 12.495 0.1275C10.7294 0.164071 8.9831 0.501842 7.33125 1.12625C5.91106 1.65038 4.62598 2.48532 3.57 3.57C2.48078 4.62225 1.64512 5.90843 1.12625 7.33125C0.501842 8.9831 0.164071 10.7294 0.1275 12.495C-1.19209e-07 14.7475 0 15.47 0 21.25C0 27.03 -1.19209e-07 27.7525 0.1275 30.005C0.164071 31.7706 0.501842 33.5169 1.12625 35.1687C1.64512 36.5916 2.48078 37.8777 3.57 38.93C4.62598 40.0147 5.91106 40.8496 7.33125 41.3737C8.9831 41.9982 10.7294 42.3359 12.495 42.3725C14.7475 42.5 15.47 42.5 21.25 42.5C27.03 42.5 27.7525 42.5 30.005 42.3725C31.7706 42.3359 33.5169 41.9982 35.1687 41.3737C36.5916 40.8549 37.8777 40.0192 38.93 38.93C40.0185 37.873 40.8602 36.5887 41.395 35.1687C42.001 33.5125 42.3312 31.7681 42.3725 30.005C42.3725 27.7525 42.5 27.03 42.5 21.25C42.5 15.47 42.5 14.7475 42.3725 12.495ZM38.5475 29.75C38.532 31.0989 38.2877 32.4354 37.825 33.7025C37.4857 34.6273 36.9407 35.4629 36.2312 36.1463C35.542 36.8486 34.7081 37.3924 33.7875 37.74C32.5204 38.2027 31.1839 38.447 29.835 38.4625C27.71 38.5688 26.9237 38.59 21.335 38.59C15.7462 38.59 14.96 38.59 12.835 38.4625C11.4344 38.4887 10.0398 38.2731 8.7125 37.825C7.83229 37.4597 7.03663 36.9172 6.375 36.2312C5.66969 35.5486 5.13154 34.7123 4.8025 33.7875C4.2837 32.5022 3.99594 31.1354 3.9525 29.75C3.9525 27.625 3.825 26.8388 3.825 21.25C3.825 15.6612 3.825 14.875 3.9525 12.75C3.96202 11.371 4.21377 10.0044 4.69625 8.7125C5.07035 7.81556 5.64456 7.01602 6.375 6.375C7.0206 5.64436 7.81849 5.06408 8.7125 4.675C10.0078 4.20759 11.373 3.96329 12.75 3.9525C14.875 3.9525 15.6612 3.825 21.25 3.825C26.8388 3.825 27.625 3.825 29.75 3.9525C31.0989 3.96797 32.4354 4.21227 33.7025 4.675C34.6682 5.03339 35.5349 5.61605 36.2312 6.375C36.9276 7.02775 37.4717 7.82581 37.825 8.7125C38.2973 10.0065 38.5417 11.3725 38.5475 12.75C38.6538 14.875 38.675 15.6612 38.675 21.25C38.675 26.8388 38.6538 27.625 38.5475 29.75ZM21.25 10.3488C19.0948 10.353 16.9893 10.9959 15.1994 12.1963C13.4095 13.3967 12.0156 15.1007 11.1937 17.093C10.3719 19.0853 10.159 21.2765 10.5821 23.3897C11.0051 25.503 12.045 27.4434 13.5704 28.9658C15.0958 30.4883 17.0383 31.5244 19.1523 31.9433C21.2664 32.3622 23.4572 32.1451 25.4479 31.3194C27.4386 30.4937 29.1399 29.0964 30.3368 27.3042C31.5337 25.512 32.1725 23.4052 32.1725 21.25C32.1753 19.8158 31.8946 18.3953 31.3464 17.07C30.7982 15.7448 29.9934 14.541 28.9783 13.5279C27.9633 12.5147 26.7579 11.7123 25.4316 11.1667C24.1052 10.6211 22.6841 10.3431 21.25 10.3488ZM21.25 28.3263C19.8505 28.3263 18.4823 27.9112 17.3186 27.1337C16.155 26.3561 15.248 25.251 14.7124 23.958C14.1768 22.6649 14.0367 21.2421 14.3097 19.8695C14.5828 18.4968 15.2567 17.236 16.2463 16.2463C17.236 15.2567 18.4968 14.5828 19.8695 14.3097C21.2421 14.0367 22.6649 14.1768 23.958 14.7124C25.251 15.248 26.3561 16.155 27.1337 17.3186C27.9112 18.4823 28.3263 19.8505 28.3263 21.25C28.3263 22.1793 28.1432 23.0994 27.7876 23.958C27.432 24.8165 26.9108 25.5966 26.2537 26.2537C25.5966 26.9108 24.8165 27.432 23.958 27.7876C23.0994 28.1432 22.1793 28.3263 21.25 28.3263Z" fill="black"/>
</svg>
